<?xml version="1.0" encoding="utf-8"?><svg xmlns="http://www.w3.org/2000/svg" xmlns:xlink="http://www.w3.org/1999/xlink"><symbol viewBox="0 0 148 16" id="logo" xmlns="http://www.w3.org/2000/svg"><g clip-path="url(#aclip0)"><path d="M6.79.74c-.498.028-.857.086-1.077.173a.79.79 0 00-.461.5c-.074.246-.11.645-.11 1.196V13.39c0 .551.036.95.11 1.196a.79.79 0 00.461.5c.22.087.579.145 1.077.174v.435a64.37 64.37 0 00-3.318-.066c-1.568 0-2.725.022-3.472.066v-.435c.483-.03.835-.087 1.055-.174a.724.724 0 00.461-.5c.088-.246.132-.645.132-1.196V2.61c0-.551-.044-.95-.132-1.196a.724.724 0 00-.461-.5C.835.826.483.768 0 .739V.304C.747.348 1.904.37 3.472.37 4.892.37 5.999.348 6.79.304V.74zm6.997-.718c.761 0 1.37.072 1.823.217.454.145.916.355 1.385.63.16.088.3.16.417.218a.858.858 0 00.33.087c.132 0 .234-.073.307-.217.074-.16.132-.406.176-.74h.506c-.074.971-.11 2.624-.11 4.957h-.506a6.887 6.887 0 00-.549-2.24c-.293-.71-.718-1.282-1.274-1.717A2.908 2.908 0 0014.38.543c-.718 0-1.304.203-1.758.61-.44.39-.66.927-.66 1.608 0 .507.11.95.33 1.326.22.377.528.725.923 1.043.396.305 1.004.725 1.824 1.261l.703.479c.864.565 1.546 1.058 2.044 1.478.498.42.9.913 1.208 1.478.323.55.484 1.196.484 1.935 0 .927-.242 1.71-.726 2.348-.483.623-1.142 1.094-1.977 1.413-.82.319-1.736.478-2.747.478-.82 0-1.501-.072-2.043-.217a6.81 6.81 0 01-1.494-.587c-.323-.203-.572-.305-.747-.305-.132 0-.235.08-.308.24-.073.144-.132.383-.176.717h-.505c.058-.913.088-2.87.088-5.87h.505c.103 1.623.469 2.942 1.099 3.957.63 1 1.596 1.5 2.9 1.5.791 0 1.443-.21 1.956-.63.512-.42.769-1.022.769-1.805 0-.812-.264-1.507-.791-2.087-.528-.58-1.363-1.232-2.505-1.956-.88-.566-1.582-1.058-2.11-1.479A5.443 5.443 0 019.37 6c-.337-.58-.505-1.246-.505-2 0-.87.22-1.601.659-2.196A3.997 3.997 0 0111.326.457c.747-.29 1.567-.435 2.46-.435zm19.77 13.848c.19.478.41.826.659 1.043.249.217.49.333.725.348v.435a69.88 69.88 0 00-3.34-.066c-1.494 0-2.607.022-3.34.066v-.435c.557-.03.952-.094 1.187-.196.234-.116.351-.311.351-.587 0-.26-.087-.608-.263-1.043L28.217 9.87h-4.79l-.571 1.5c-.41 1.043-.615 1.847-.615 2.413 0 .536.16.913.483 1.13.337.203.828.319 1.472.348v.435a62.898 62.898 0 00-2.724-.066c-.674 0-1.23.022-1.67.066v-.435c.717-.13 1.347-.891 1.89-2.283L26.701.261c.16.014.417.022.768.022.352 0 .6-.008.747-.022l5.34 13.609zm-5.494-4.435l-2.175-5.87-2.285 5.87h4.46zm21.187 4.5c.22.333.447.601.68.804.235.203.535.377.902.522v.435a81.495 81.495 0 00-3.428-.066c-.967 0-1.897.022-2.79.066v-.435c.41-.03.703-.073.878-.13.19-.059.286-.16.286-.305 0-.116-.08-.297-.242-.543l-3.186-5.11c-.293-.463-.542-.774-.747-.934-.19-.16-.454-.253-.791-.282v5.434c0 .551.037.95.11 1.196a.79.79 0 00.461.5c.22.087.579.145 1.077.174v.435a64.37 64.37 0 00-3.318-.066c-1.567 0-2.725.022-3.472.066v-.435c.484-.03.835-.087 1.055-.174a.724.724 0 00.462-.5c.087-.246.131-.645.131-1.196V2.61c0-.551-.044-.95-.131-1.196a.724.724 0 00-.462-.5c-.22-.087-.571-.145-1.055-.174V.304c.747.044 1.905.066 3.472.066 1.421 0 2.527-.022 3.318-.066V.74c-.498.03-.857.087-1.077.174a.79.79 0 00-.461.5c-.073.246-.11.645-.11 1.196V7.5a3.143 3.143 0 001.604-.522c.484-.319 1.033-.826 1.648-1.521l1.297-1.544c.673-.768 1.01-1.442 1.01-2.022a.955.955 0 00-.44-.826c-.278-.203-.673-.319-1.186-.348V.304a79.15 79.15 0 003.252.066c.85 0 1.538-.022 2.066-.066v.413c-1.172.276-2.234.971-3.186 2.087l-2.747 3.24 5.12 7.89zM58.463 0c1.553 0 2.908.312 4.065.935a6.533 6.533 0 012.725 2.717c.644 1.174.967 2.58.967 4.218 0 1.594-.33 3.007-.99 4.239a7.1 7.1 0 01-2.768 2.87C61.29 15.658 59.95 16 58.442 16c-1.554 0-2.916-.312-4.088-.935a6.6 6.6 0 01-2.703-2.695c-.644-1.189-.966-2.602-.966-4.24 0-1.594.33-3.007.988-4.239.66-1.232 1.575-2.188 2.747-2.87C55.607.342 56.954 0 58.463 0zm-.088.391c-.805 0-1.516.326-2.131.979-.615.637-1.091 1.536-1.428 2.695-.323 1.16-.484 2.486-.484 3.978 0 1.508.183 2.834.55 3.979.38 1.145.886 2.029 1.516 2.652.644.623 1.355.935 2.131.935.806 0 1.516-.32 2.131-.957.616-.652 1.085-1.558 1.407-2.717.337-1.16.505-2.486.505-3.978 0-1.508-.19-2.834-.571-3.979-.366-1.145-.872-2.029-1.516-2.652-.63-.623-1.333-.935-2.11-.935zM79.93.37c.674 0 1.23-.022 1.67-.066V.74c-.366.13-.725.406-1.077.826-.351.42-.666 1.007-.944 1.761L74.942 15.74a9.597 9.597 0 00-.769-.022c-.337 0-.586.008-.747.022L67.823 2.13c-.19-.478-.41-.826-.66-1.043-.248-.217-.49-.333-.724-.348V.304c.879.044 1.992.066 3.34.066 1.508 0 2.622-.022 3.34-.066V.74c-.557.03-.953.094-1.187.196-.234.101-.352.304-.352.608 0 .247.088.587.264 1.022l3.867 9.74 2.703-7.218c.41-1.116.615-2 .615-2.652 0-.58-.161-1-.483-1.261-.308-.261-.762-.406-1.363-.435V.304c.996.044 1.912.066 2.747.066zm15.75.44c-.22-.533.307-.634.585-.634V.074h-2.237v.102c.358 0 .608.152.863.707l-3.93 9.784L86.848.81c-.222-.533.306-.634.585-.634V.074h-2.237v.102c.357 0 .607.152.863.707l-2.805 7.36c-.562 1.467-.653 2.435-.653 2.99 0 2.666 2.316 4.693 5.212 4.693h1.141l.556-1.24h-.102c-.94.78-1.195.78-1.474.78-2.129 0-4.8-1.35-4.8-4.266 0-.532-.028-1.461.534-2.933l2.666-7.2 5.725 14.203c.222.532-.403.555-.482.555v.101h2.09v-.101c-.08 0-.529.079-.79-.555l-1.692-4.07 3.95-10.133 5.758 14.203c.222.532-.403.555-.482.555v.101h2.089v-.101c-.079 0-.528.073-.789-.555L95.68.81zM112.467.8c0-.532.096-.624.556-.624V.074h-1.528v.102c.46 0 .438.092.438.624V12c0 2.152-1.477 3.898-3.895 3.898-2.339 0-3.917-1.568-3.917-4.156V.832c0-.532.255-.656.715-.656V.074h-2.197v.102c.46 0 .715.124.715.656V11.59c0 2.66 2.016 4.41 4.684 4.41 2.441 0 4.429-1.718 4.429-4V.8zm7.968 15.2c2.622 0 4.859-1.727 4.859-4.082 0-2.565-2.134-3.958-4.604-5.379-2.078-1.194-4.275-2.1-4.275-4.025 0-1.421.971-2.316 2.623-2.316 1.192 0 2.316.408 3.435.991.573.3.891.764.863 1.444h.102V1.138c-.341-.074-2.186-.674-2.368-.736C119.963.034 119.396 0 118.862 0c-1.936 0-3.179 1.144-3.179 2.763 0 2.004 1.879 3.086 4.348 4.388 2.357 1.24 4.576 2.915 4.576 5.095 0 2.13-1.782 3.63-4.275 3.63-2.134 0-4.065-1.246-5.285-2.967h-.102v2.485h.102c.079-.447.142-.94.573-.94.119 0 .222.017.443.153 1.595.98 2.697 1.393 4.372 1.393zm9.206-.074v-.101c-.455 0-.71-.125-.71-.657V.832c0-.532.255-.656.71-.656V.074h-2.186v.102c.454 0 .71.124.71.656v14.336c0 .532-.256.657-.71.657v.101h2.186zM147.06 5.073A8.049 8.049 0 00139.554 0c-4.4 0-8.01 3.6-8.01 7.989 0 4.36 3.537 8.011 8.061 8.011 3.458 0 6.41-2.202 7.528-5.271h-.278c-.84 2.837-3.412 4.818-6.591 4.818-4.423 0-8.266-3.827-8.266-8.215 0-3.93 2.98-6.88 6.898-6.88 3.151 0 5.972 1.932 7.374 4.62h.79z"/></g><defs><clipPath id="aclip0"><path d="M0 0h147.133v16H0z"/></clipPath></defs></symbol></svg>